<?xml version="1.0" encoding="utf-8"?>
<!-- Generator: Adobe Illustrator 19.0.0, SVG Export Plug-In . SVG Version: 6.00 Build 0)  -->
<svg version="1.1" id="Layer_1" xmlns="http://www.w3.org/2000/svg" xmlns:xlink="http://www.w3.org/1999/xlink" x="0px" y="0px"
	 width="512px" height="512px" viewBox="0 0 512 512" style="enable-background:new 0 0 512 512;" xml:space="preserve">
<style type="text/css">
	.st0{fill:#545554;}
	.st1{fill:#ABABAB;}
</style>
<path id="XMLID_5_" class="st0" d="M237.216,54c0.546,9.876,2.233,22.279,5.873,37.8c3.676,15.637,5.677,36.182,6.236,61.323
	c-9.557,1.77-18.109,7.328-24.6,15.394c-41.061,0.247-48.039,45.435-49.199,59.302c-2.177,26.182-15.996,45.204-32.836,45.204
	c-17.909,0-32.521-19.687-32.789-44.032h7.835c2.396,0,4.35-1.946,4.35-4.37c0-2.404-1.954-4.358-4.35-4.358h-2.902
	c19.931-4.932,34.706-22.996,34.706-44.526h-37.845H96.454H58.135c0,21.53,14.776,39.594,34.706,44.526h-2.902
	c-2.404,0-4.345,1.954-4.345,4.358c0,2.424,1.942,4.37,4.345,4.37h7.906c0.275,29.751,18.702,54.067,41.871,55.985
	c-1.192,1.527-1.993,4.162-1.993,7.184c0,3.724,1.216,6.877,2.911,8.054c-3.289,1.603-5.789,7.902-6.594,11.482
	c-0.937,4.182,2.699,8.915,8.054,9.094c5.359-0.179,8.998-4.924,8.058-9.094c-0.802-3.58-3.309-9.88-6.606-11.482
	c1.703-1.176,2.911-4.33,2.911-8.054c0-2.962-0.761-5.566-1.922-7.097c22.742-1.184,40.308-23.969,42.999-56.24
	c1.096-13.106,6.18-41.931,29.475-47.329c-3.15,7.412-4.94,15.848-4.94,24.779c0,8.249,1.519,16.063,4.226,23.049h-24.304
	c8.365,41.038,27.123,92.342,59.963,96.205c-13.906,2.519-22.881,15.441-20.285,26.948c2.504,11.172,10.446,30.986,20.844,35.025
	v13.125c-2.117,2.352-3.516,6.77-3.516,11.833c0,5.925,1.921,10.96,4.621,12.807c-5.227,2.564-9.226,12.59-10.494,18.28
	c-1.483,6.642,4.302,14.157,12.822,14.456c8.504-0.299,14.277-7.814,12.798-14.456c-1.284-5.689-5.267-15.717-10.49-18.264
	c2.699-1.862,4.637-6.897,4.637-12.822c0-5.063-1.416-9.481-3.516-11.833V387.5c10.397-4.038,18.344-23.854,20.844-35.025
	c2.595-11.506-6.384-24.44-20.298-26.948c32.841-3.863,51.603-55.167,59.98-96.205h-24.336c2.715-6.985,4.242-14.804,4.242-23.049
	c0-8.959-1.802-17.379-4.964-24.811c23.435,5.306,28.526,34.232,29.611,47.361c2.731,32.713,20.744,55.665,43.952,56.255
	c-1.144,1.547-1.906,4.131-1.906,7.081c0,3.724,1.208,6.877,2.906,8.054c-3.289,1.603-5.773,7.902-6.611,11.482
	c-0.917,4.182,2.719,8.915,8.066,9.094c5.359-0.179,8.991-4.924,8.066-9.094c-0.81-3.58-3.305-9.88-6.602-11.482
	c1.694-1.176,2.914-4.33,2.914-8.054c0-3.082-0.837-5.761-2.069-7.272c22.761-2.472,40.715-26.529,40.982-55.896h7.906
	c2.404,0,4.349-1.946,4.349-4.37c0-2.404-1.946-4.358-4.349-4.358h-2.902c19.927-4.924,34.714-22.981,34.714-44.514h-38.303h-15.25
	h-37.844c0,21.534,14.78,39.59,34.71,44.526h-2.906c-2.408,0-4.35,1.958-4.35,4.357c0,2.424,1.942,4.366,4.35,4.366h7.827
	c-0.26,24.348-14.86,44.036-32.801,44.036c-16.829,0-30.627-19.014-32.82-45.204c-1.152-13.899-8.138-59.147-49.314-59.306
	c-6.487-8.066-15.043-13.623-24.627-15.402c0.567-25.138,2.579-45.678,6.252-61.319c3.628-15.449,5.335-27.813,5.877-37.664"/>
<path id="XMLID_4_" class="st1" d="M109.195,175.809c15.214-37.533-7.611-56.148-7.611-56.148h-0.024
	c0,0-22.821,18.615-7.607,56.148"/>
<path id="XMLID_3_" class="st1" d="M416.784,175.809c15.214-37.533-7.611-56.148-7.611-56.148h-0.024
	c0,0-22.817,18.615-7.607,56.148"/>
<path id="XMLID_2_" class="st0" d="M255.998,77.392"/>
</svg>
