<?xml version="1.0" encoding="utf-8"?>
<!-- Generator: Adobe Illustrator 27.2.0, SVG Export Plug-In . SVG Version: 6.00 Build 0)  -->
<svg version="1.1" id="Layer_3" xmlns="http://www.w3.org/2000/svg" xmlns:xlink="http://www.w3.org/1999/xlink" x="0px" y="0px"
	 viewBox="0 0 304.8 446.2" style="enable-background:new 0 0 304.8 446.2;" xml:space="preserve">
<style type="text/css">
	.st0{fill:none;stroke:#231F20;stroke-width:5;}
	.st1{fill:none;stroke:#231F20;stroke-width:3;}
	.st2{fill:none;stroke:#231F20;stroke-width:5;stroke-linecap:round;}
	.st3{fill:none;stroke:#231F20;}
</style>
<g id="XMLID_2_">
	<g>
		<polygon points="233,129.7 258.9,165.8 249.4,173.7 222.3,135.6 230,129.3 		"/>
		<path d="M238.6,22.2c3.3,4.6,6.9,17.1-4.6,26c-2.6,2.6-0.3-3.3-12.2,4.3s-18.7-2-18.7-2l-64.4,136.7l0.1,0.1l-1.9,1.5l-0.3-0.4
			L201,53.7l-11.2,6.9l-0.5-0.2l6.2-13.8c0,0,1.6-5.6-6.9-7.2c-8.5-1.6-15.8-8.5-12.2-15.8c2.6-5.3,0.7-8.5,1.6-11.8
			c1-3.3,7.2-10.2,16.4-9.2c2.6,1,6.6-1,6.6-1c7.2,1,14.1-2,23.3,9.2S235.3,17.6,238.6,22.2z"/>
		<polygon points="230,129.3 222.3,135.6 216.6,127.4 		"/>
		<polygon points="196.5,157.6 225.8,193.4 222.7,196 213.7,203.3 185.3,165.9 195.4,157.6 		"/>
		<polygon points="222.7,196 213.9,203.6 213.7,203.3 		"/>
		<polygon points="201,53.7 136.6,188.4 196.4,56.6 189.8,60.5 		"/>
		<polygon points="195.4,157.6 185.3,165.9 178.8,157.3 		"/>
		<path d="M194.2,319.3c1.1,0.3,1.5,2.7,1.5,6.2c0,8.1-2.3,21.7-4.3,25.8c-0.6,1.3-1.4,2.8-2.2,4.4c-2.7,5.2-6.5,10-6.7,14
			c0,0.5,1.6-0.1,1.6,0.6c0,7.4-6.5,20.5-6.7,20.9l-1.3-5.4c0-0.1,1.8-8.4,2.8-13.9c0.8-4.6,4.5-12.2,7.3-17.7
			c0.8-1.6,1.5-3,2.1-4.3C190.5,345.4,193.7,325.9,194.2,319.3z"/>
		<polygon points="192.6,220.3 192.9,220.7 182.4,228.9 182.3,228.7 		"/>
		<polygon points="192.6,220.3 182.3,228.7 156,189.9 164,183.3 165.3,183.6 		"/>
		<path d="M175.9,337.1c5.5-14.2,6.9-19.6,14.5-18.8c-1.5,0.3-3.1,2.2-5,5.6c-1.9,3.4-4,8.2-6.4,14.4c-4.9,12.7-9.5,13.4-11.4,13.4
			c-0.4,0-0.6-0.1-0.8-0.1l0.2-0.7c0,0,1.1-0.4,2.8-2.4C171.4,346.5,173.6,343.1,175.9,337.1z"/>
		<polygon points="174.6,87 173,97 171.3,100.8 145.8,96.8 146.5,93.1 139.2,92 138.6,95.7 137.8,95.5 105.8,90.6 108,76.6 		"/>
		<path d="M175.2,387.1c-0.5,0.1-1,0.5-1.5,0.9c-0.5,0.4-1.1,0.7-1.8,0.7c-5,0-11.3-2.4-12.1-2.6c2.2,0.4,8.1,1.2,12.3,1.2
			C173.3,387.4,174.4,387.3,175.2,387.1z"/>
		<polygon points="171.3,100.8 173,97 172.4,100.9 		"/>
		<polygon points="164,183.3 156,189.9 149.2,180 		"/>
		<path d="M157.9,335.9c1.2,0.7,10,6.3,5.1,22c-4.7,14.9-5.2,28.3-5.2,28.5l-0.1,2.5l-2.3-1.1c-1.2-0.6-30.7-15.2-45.2-30.6
			L96.7,343c-2.4,1.6-8.1,6.1-10,12.4c-0.8,2.7-1.8,5.2-2.8,7.5c-2.3,5.4-4.4,10.5-4.1,18.6c0.5,13.9-6.8,24.9-13.7,30.7
			c-2,1.7-4,2.5-5.8,2.5c-0.6,0-1.1-0.1-1.7-0.2c-3.1-0.9-4.8-4.1-5.4-5.4c-1.8-1-7.7-4.4-10.1-7.6c1,1.3,3.5,2.3,6.1,3.1
			c2.5,0.8,5.1,1.4,6.1,1.9l0.6,0.3l0.2,0.6c0.3,0.9,1.5,3.4,3.4,3.9c1.2,0.4,2.8-0.2,4.5-1.6c6.1-5,13-15.3,12.5-28
			c-0.3-8.9,2.1-14.6,4.4-20c1-2.3,2-4.6,2.7-7.2c2.8-9.3,12.2-14.7,12.6-15l1.1-0.6l15.3,16.3c11.8,12.6,34.8,25,42,28.7
			c0.4-4.7,1.5-15.2,5.2-26.8c4.3-13.7-3.3-18-3.6-18.2l-0.2-0.1c-1.8-1.2-43.5-30.3-46.1-32.5c-0.2-0.2-0.5-0.4-0.7-0.6l1.2-0.1
			l1.9-1.6C115.9,306.7,143.3,325.8,157.9,335.9z"/>
		<path d="M156.2,338.8c0.3,0.2,7.9,4.5,3.6,18.2c-3.7,11.6-4.8,22.1-5.2,26.8c-7.2-3.7-30.2-16.2-42-28.7l-15.3-16.3l-1.1,0.6
			c-0.4,0.2-9.8,5.7-12.6,15c-0.8,2.6-1.8,4.9-2.7,7.2c-2.3,5.5-4.7,11.1-4.4,20c0.5,12.7-6.5,23-12.5,28c-1.7,1.4-3.3,2-4.5,1.6
			c-1.9-0.5-3.1-3-3.4-3.9l-0.2-0.6l-0.6-0.3c-1-0.5-3.5-1.1-6.1-1.9c-2.5-0.8-5.1-1.8-6.1-3.1l-0.2,0.1c-3-2.3-5.3-6.9-5.3-6.9
			c8.7,3.3,16.2,2.5,20.8,1.2c0,0,0,0,0,0c1.6-0.2,3.2-0.5,5-0.9c0,0,0-0.3,0-1c0.1,0,0.1-0.1,0.1-0.1l-0.2-11.8
			c0-4,0.2-8.4,0.4-12.4c2.6-12.8,1.4-21.8,1.4-21.8c-1.3-12.8-12-31.1-12-31.1l0.1-0.1l0.1,0.1c-0.3-11.6-1.9-20.2-5.3-27.2
			c-2.2-4.6-4.3-8.9-5.6-14.3c-1.1-4.4-1.6-9.5-1.9-14.4c6.3,23,19.9,25.9,20.6,26.1l1.7,0.3l0.3-1.7c4-26.5,0.5-47.5-4-61.8
			c4.2,5.5,13,10.2,31.5,10.2c4.2,0,11.8-0.8,17.3-1.4l0,0.9l2.1-0.4c0.4-0.1,1.5-0.2,2.3,0.6c0.4,0.4,0.8,1,1,2
			c0.8,4.2-0.3,35.7-3,49.6c-0.3,1.3-0.6,2.5-0.8,3.5c-3.3,10.8-3,14.2-0.1,16.9c0.2,0.2,0.4,0.4,0.7,0.6
			c2.6,2.2,44.3,31.3,46.1,32.5L156.2,338.8z"/>
		<polygon points="157.9,248.4 158.1,248.6 147.2,257.2 147.2,257.1 		"/>
		<polygon points="157.9,248.4 147.2,257.1 131,233.8 113.4,208.5 130.6,211.7 131.5,211.8 		"/>
		<path d="M157.4,269.8c0.4,0.4-7,8.4-7.4,8.8c-0.4,0.4-1,0.4-1.4,0l-1.8-1.9c-0.4-0.4-0.4-1,0-1.4c0.4-0.4,8-7.4,8.8-7.4
			c0,0,0,0,0,0L157.4,269.8z"/>
		<polygon points="146.5,93.1 145.8,96.8 138.6,95.7 139.2,92 		"/>
		<polygon points="144.2,100.3 136.6,107.8 138.6,95.7 145.8,96.8 145.4,99.2 		"/>
		<path d="M142.7,254.3l-0.8-0.8c-0.3-0.4-0.5-0.7-0.8-1.1C141.8,253.1,142.4,253.8,142.7,254.3z"/>
		<path d="M141.9,253.5c0.3,0.4,0.5,0.8,0.8,1.1c-0.4-0.5-1-1.3-1.7-2.1L141.9,253.5z"/>
		<path d="M141.9,253.5l-1-1c0,0,0-0.1-0.1-0.1c-1-1.1-2.2-2.5-3.2-3.6c1,1,2.3,2.4,3.4,3.6C141.4,252.7,141.7,253.1,141.9,253.5z"
			/>
		<path d="M140.9,252.4l-4.7-5c0.2,0.2,0.7,0.7,1.4,1.4c0,0,0,0,0,0C138.7,249.9,139.9,251.2,140.9,252.4z"/>
		<path d="M137.4,247.5c0.2,0.1,2.1,2.6,3.7,4.8c-1.1-1.2-2.4-2.6-3.4-3.6c0,0,0,0,0,0c-1-1-1.8-1.9-2.3-2.3L137.4,247.5z"/>
		<path d="M133.7,259.6c-0.5-0.1-13.2-4-15.1-19.7c0,0,2.4,3.5,4.4,4.2C123,244,128.7,256.5,133.7,259.6z"/>
		<path d="M116.5,235c0.8,4.5-0.1,34-2.7,49.1l-1.7,1.4l-1.8-0.2c2.8-13.9,3.8-45.4,3-49.6c-0.2-1-0.6-1.6-1-2l1.8-0.4
			c0.5,0.5,1.2,0.9,2.2,1c0,0,0,0,0,0C116.4,234.4,116.5,234.7,116.5,235z"/>
		<path d="M116.4,234.2C116.4,234.2,116.4,234.2,116.4,234.2c-1-0.1-1.7-0.5-2.2-1c-0.9-0.8-1.2-2.1-1.6-3.2
			c0.5,0.2,0.9,0.4,1.4,0.7C115.1,231.4,115.9,232.6,116.4,234.2z"/>
		<path d="M111.4,227.6c0,0.7,0,1.4,0,2.1c0.4,0.1,0.7,0.1,1.1,0.3c0.4,1.1,0.7,2.3,1.6,3.2l-1.8,0.4c-0.8-0.7-1.9-0.7-2.3-0.6
			l-2.1,0.4l0-0.9c0.2,0,0.4,0,0.7-0.1l0.2-0.7c-0.3,0-0.5,0.1-0.8,0.1l0-0.6c1.3-19.9-7.2-36.2-7.3-36.4l-1.2-2.2l2.5-0.2
			c7-0.5,15.9,8,16.5,8.5c-0.3-0.1-2.3-1.1-4.9-2.2c-2.8-1.2-6.2-2.4-8.8-2.9c1.2,2.9,3.2,7.9,4.7,14.4
			C110.7,215.3,111.5,221.2,111.4,227.6z"/>
		<path d="M112.1,285.4l1.7-1.4c-0.4,2.2-0.8,4.1-1.2,5.6c-3.5,11.5-2.2,12.6-0.5,14c0.1,0.1,0.2,0.1,0.3,0.2l-1.9,1.6l-1.2,0.1
			c-2.9-2.8-3.2-6.2,0.1-16.9c0.3-1,0.6-2.1,0.8-3.5L112.1,285.4z"/>
		<path d="M108.8,231.7l-0.2,0.7c-0.2,0-0.4,0-0.7,0.1l0-0.6C108.3,231.8,108.5,231.7,108.8,231.7z"/>
		<path d="M108,231.8l0,0.6c-5.5,0.6-13.1,1.4-17.3,1.4c-18.6,0-27.3-4.6-31.5-10.2c-0.7-2.1-1.4-4.1-2-6c-2.9-7.7-6.5-14-9.5-18.5
			c-1.8-2.7-3.3-4.8-4.2-6.1c1,0.9,4,3.8,7.2,7.5c3.8,4.4,7.8,9.8,8.9,14.6C61.6,223.9,72.2,235.4,108,231.8z"/>
		<polygon points="94.8,193.6 92.2,221.6 84.1,207.5 83.9,205 82.2,202.5 82.5,204.5 80.8,201.5 90,191.3 83.8,201.6 90.3,213 		"/>
		<path d="M92.3,141.2c1.4,11.2,3.3,26.5-1.2,38c-5.1,12.7-13.8,14.2-15.6,14.4c-0.6,0.2-1.8,0.6-3.8,0.6c-6.3,0-20-3.5-43.1-26.2
			l0.4-0.4c0.7-0.2,1.4-0.4,2.2-0.7l-0.4-1.1l0.1-0.1c30.7,30.1,43.3,25,43.5,24.9l0.3-0.2l0.4,0c0.3,0,8.2-0.5,13-12.3
			c4.3-10.6,2.4-25.5,1-36.3c-0.3-2.1-0.5-4.1-0.7-5.8c-1-9.9-6-19-6.2-19.3c0.2,0.2,2.3,2.1,4.4,5.4c2.2,3.3,4.5,8,5.1,13.6
			C91.8,137.1,92,139.1,92.3,141.2z"/>
		<polygon points="84.1,207.5 86.1,230.1 82.5,204.5 		"/>
		<polygon points="83.9,205 84.1,207.5 82.5,204.5 82.2,202.5 		"/>
		<path d="M83,161.8c0,0.1,0.2,1.1,0.2,2.5c0,3.5-0.9,9.5-6.6,12.8c-1.6,0.9-3.2,1.2-4.8,1.2c-6.4,0-13.9-8.2-15.5-10.1
			c0.7-0.2,1.7-0.4,2.8-0.5c1.9,1.8,10.4,9.5,15.9,6.4c5.9-3.3,7.7-10.8,8-12.2C83,161.9,83,161.8,83,161.8z"/>
		<path d="M82,154.6c0.2,0.8,0.4,1.6,0.4,2.4c0,1.6-0.5,3.3-1.3,4.8c-2.5,4.7-8.4,8.3-15.2,6.7c-2.9-0.7-5.2-0.8-7-0.7
			c-0.2-0.2-0.4-0.4-0.4-0.4l-2.7,0.5c0,0,0.1,0.2,0.3,0.3c-2.1,0.6-2.8,1.5-2.8,1.5l-0.9,1.1c0.3-0.7-1.1-9.5,14.2-5.7
			C76.5,167.8,81.8,155.1,82,154.6z"/>
		<path d="M81.1,106.3c0,2.2-0.1,4.6-0.4,7.1c-2.6-11.3-4.4-19.4-2-22.7C78.8,91.1,81.1,96.9,81.1,106.3z"/>
		<path d="M78.8,202.8l-0.2,1.5c-0.1-0.4-0.1-0.6-0.2-0.7l-1.2,1.2c0,0,0.3,1.1,0.8,2.7l-2.9,17.1c-0.9-3.5-13.6-21.7-20.9-30.5
			c1.1,1.2,4.5,4.7,8.2,8.9c4.1,4.5,8.6,9.8,11.2,13.9l1.6-12.3l-16.1-8.9L78.8,202.8z"/>
		<path d="M78.6,204.3c0.8,3.4,4.1,17.8,4.3,24.9c-0.2-5.8-3.3-16.5-4.8-21.6L78.6,204.3z"/>
		<path d="M78.6,204.3l-0.6,3.3c-0.5-1.7-0.8-2.7-0.8-2.7l1.2-1.2C78.4,203.7,78.5,203.9,78.6,204.3z"/>
		<path d="M67.6,125.2c4.3-5.7,9.3-2.7,9.3-2.7c-0.8,0.1-1.9,0.6-3,1.1c-2.3,0.6-4,1.8-5,2.7c-0.7,0.5-1.2,0.8-1.2,0.8L67.6,125.2z"
			/>
		<path d="M61.2,132.4c6.6,1.7,10.8,12.3,10.7,14.5C71.8,145.1,62.3,133.7,61.2,132.4z"/>
		<path d="M71.9,146.9C71.9,147,71.9,147,71.9,146.9C71.9,147,71.9,147,71.9,146.9z"/>
		<path d="M73.9,123.6c-1.8,0.9-3.7,2-5,2.7C69.9,125.4,71.6,124.2,73.9,123.6z"/>
		<path d="M67.2,152.7c0,0-0.2,1.1-2.2-0.3c-2-1.4-3-2.1-3-2.7C62.1,149.6,66,151.1,67.2,152.7z"/>
		<path d="M59.1,223.6c4.4,14.3,7.9,35.3,4,61.8l-0.3,1.7l-1.7-0.3c-0.7-0.1-14.3-3-20.6-26.1c0.3,5,0.8,10.1,1.9,14.4
			c1.3,5.5,3.4,9.8,5.6,14.3c3.4,7,5,15.7,5.3,27.2l-0.1-0.1l-0.3-0.1c-0.3-10.9-4.4-18.6-7.8-25.6c-2.2-4.5-4.4-9.2-5.8-15
			c-3.5-14.5-0.2-37.8-0.2-38.7c0.4,10.5,2.5,19,5,25.5c2.5,6.5,5.5,11.1,7.8,13.9c3.2,3.8,6.3,5.6,8.1,6.3
			c6.7-48.9-12-81.7-16.7-89.7c1.9,2.7,10.4,15.3,12.3,23C56.3,218.7,57.3,221.2,59.1,223.6z"/>
		<path d="M61.7,444.5c4.1-4.1-2.2-14.3-4.8-17.8c-2-2.7-6-16.8-6.6-18.1l2.5,1.4c1.4,3.4,5.2,12.7,6.7,14.7
			C66.2,433.6,66.1,440.4,61.7,444.5z"/>
		<path d="M61.2,132.4C61.2,132.4,61.2,132.4,61.2,132.4c-0.1-0.1-0.1-0.1-0.1-0.1C61.1,132.3,61.2,132.3,61.2,132.4z"/>
		<path d="M59.8,337.8c0.7,0,0.8,0.8,0.7,2c-0.1,1-0.1,4.6-0.9,5.5c-0.3-0.3-0.6-0.5-1-0.7c-0.3-1.7,0.2-5.2,0.3-5.8
			C59,338.9,59.1,337.8,59.8,337.8z"/>
		<path d="M59.6,345.4c-0.1,0.1-0.2,0.2-0.4,0.2c-0.3,0-0.5-0.4-0.6-0.9C59,344.9,59.3,345.1,59.6,345.4z"/>
		<path d="M58.6,167.5c0,0,0.1,0.1,0.4,0.4c-1.1,0.1-2,0.2-2.8,0.5c-0.2-0.2-0.3-0.3-0.3-0.3L58.6,167.5z"/>
		<path d="M58.6,334.1c0,1-1.4,8.3-1.7,9.6c-0.4-0.2-0.8-0.3-1.2-0.5c0-0.1,0-0.2,0-0.3c0-2,0.4-6,0.8-8L52.1,320
			C52.4,320.9,58.6,333,58.6,334.1z"/>
		<path d="M57.1,217.7c0.7,1.8,1.4,3.8,2,6c-1.8-2.4-2.8-5-3.4-7.4c-1.8-7.7-10.3-20.2-12.3-23c0,0,0,0,0,0
			c-0.1-0.1-0.2-0.2-0.2-0.4c0.1,0,0.1,0.1,0.2,0.2c0.9,1.3,2.4,3.4,4.2,6.1C50.6,203.7,54.2,210,57.1,217.7z"/>
		<path d="M56.9,343.7L56.9,343.7c0,0.1,0,0.2,0,0.2s-1.1,0.9-1.2-0.7C56.1,343.4,56.5,343.5,56.9,343.7z"/>
		<path d="M53.2,335.4c0.9,0,1.2,1,1.1,2.6c0,0.9,0.1,3.1-0.1,4.9c-0.7-0.1-1.4-0.2-2.2-0.2c-0.1-2.3,0.2-5.2,0.2-5.8
			C52.2,336.8,52.3,335.3,53.2,335.4z"/>
		<path d="M54.1,342.9c-0.1,1.5-0.5,2.8-1.2,2.8c-0.7,0-0.9-1.3-1-3C52.7,342.6,53.5,342.7,54.1,342.9z"/>
		<path d="M52.1,320C52.4,321.3,51.7,319.2,52.1,320L52.1,320z"/>
		<path d="M52,319.9C52,319.8,52,319.8,52,319.9L52,319.9z"/>
		<path d="M50.5,136.6l0.9,1.4l-1.7,0.1c-5.7,0.2-9.9,7.4-10.2,8c0.1-0.2,0.5-1.6,1.3-3.1c0,0.1,0.1,0.1,0.1,0.2l6.7-6.5
			c0,0-0.1-0.1-0.1-0.1c0.2-0.1,0.3-0.1,0.5-0.1c-1.1-1.3-2.9-2.9-4.7-2.9c0,0,0,0,0,0c-1.5,0-4.5,1.4-6,4.4c0-0.1,0-0.2,0-0.3
			c0-4.5,3.8-6.1,6-6.1c0,0,0,0,0,0C47.3,131.5,50.4,136.4,50.5,136.6z"/>
		<path d="M50.6,316.3c0.2-0.1,0.3-0.1,0.3-0.1C50.8,316.2,50.6,316.3,50.6,316.3z"/>
		<path d="M48.6,335.9c0.7,0,1,0.9,0.9,2.5c0,0.8,0,2.6-0.1,4.3c-0.7,0.1-1.3,0.2-1.9,0.3c0-2.2,0.2-4.9,0.2-5.5
			C47.7,337.4,47.8,336,48.6,335.9z"/>
		<path d="M49.4,342.7c-0.1,1.7-0.4,3.3-1.1,3.4c-0.6,0.1-0.8-1.4-0.8-3.2C48.1,342.8,48.7,342.7,49.4,342.7z"/>
		<path d="M47.5,136.7l-6.7,6.5c0-0.1-0.1-0.1-0.1-0.2c1.2-2.4,3.3-5.4,6.6-6.4C47.5,136.6,47.5,136.7,47.5,136.7z"/>
		<path d="M42.8,192.2c0,0.1,0.1,0.2,0.1,0.2c-3.3,1.3-7.8,2.8-10.9,3.1c-2.9,0.2-17.6,3.8-23,48.1c-0.3,0-0.6,0.1-0.8,0.1l-2.5-0.3
			c2.3-19,6.5-33.1,12.6-41.8c5.3-7.6,10.7-9.1,13.4-9.4c4.8-0.4,15.6-2.5,15.7-2.5l-0.4,1c-0.2,0.1-1.8,0.8-4.1,1.7
			C42.9,192.3,42.8,192.2,42.8,192.2z M42.4,191.5c0,0.1,0.1,0.3,0.3,0.6C42.6,191.8,42.5,191.6,42.4,191.5z"/>
		<path d="M38.9,419.7c0.1,0.2,12,21.2,18.6,26.5c-7.8-4.3-20-24.1-20.5-24.9L38.9,419.7z"/>
		<path d="M43.2,137.2c2.1-2.2,3.7-1.1,4.2-0.7c-3.3,1-5.4,4-6.6,6.4C40.1,141.4,40.8,139.8,43.2,137.2z"/>
		<path d="M45.6,343.4c0.3,1.7,0.4,3.3-0.3,3.5c-0.6,0.2-1.2-1.1-1.7-2.7C44.3,343.9,44.9,343.7,45.6,343.4z"/>
		<path d="M44.6,339.2c0.2,0.8,0.7,2.6,1,4.2c-0.7,0.2-1.3,0.5-1.9,0.8c-0.7-2.2-1.1-5-1.2-5.6c0,0-0.3-1.4,0.5-1.6
			C43.7,336.8,44.3,337.7,44.6,339.2z"/>
		<path d="M43.4,193.1c-0.1-0.1-0.1-0.1-0.2-0.2c0,0,0,0,0,0c-0.1-0.2-0.2-0.4-0.3-0.5c0,0,0,0,0,0
			C43.1,192.6,43.2,192.8,43.4,193.1z"/>
		<path d="M43.2,192.9c0.1,0.1,0.1,0.2,0.2,0.4c-0.2-0.3-0.3-0.4-0.4-0.5C43.1,192.8,43.2,192.9,43.2,192.9
			C43.2,192.9,43.2,192.9,43.2,192.9z"/>
		<path d="M33.7,278.8c2.4,3.6,16.6,35.3,16.9,37.5c-0.5-2-16.2-31.8-19.1-36.1c-2.9-4.3-1.4-10.6-1.3-10.8l1.3-1.7
			C31.5,267.7,31.4,275.3,33.7,278.8z"/>
		<path d="M42.9,192.4C42.9,192.4,42.9,192.4,42.9,192.4c-0.1-0.1-0.1-0.2-0.2-0.2C42.8,192.2,42.9,192.3,42.9,192.4z"/>
		<path d="M42.4,191.5c0,0.1,0.2,0.3,0.3,0.6C42.6,191.9,42.5,191.7,42.4,191.5z"/>
		<path d="M42.2,328.5c0,0,2.2,2-0.3,3.8C41.9,332.3,40.6,329.9,42.2,328.5z"/>
		<path d="M15.6,281.2c2,4.5,27.4,37.1,26.1,45.8c-1.6-4.6-21-36.2-27.1-41.8c-5.3-4.8-9.2-20.4-9.4-20.9c0,0.1,1.7,2.3,3.9,5.5
			C11.3,272.9,13.9,277.1,15.6,281.2z"/>
		<path d="M36.9,396.2l-6.2,9.8c0.8,2.2,2.4,9.6,4.6,12.4c-5.8-2.2-7.9-11.8-8-12.2l-0.3-0.8l8.1-10.4L36.9,396.2z"/>
		<path d="M30.8,165.6l0.4,1.1c-0.7,0.3-1.5,0.5-2.2,0.7L30.8,165.6z"/>
		<path d="M30,163.6l0.8,2l-1.8,1.8c-2.1,0.6-4,0.9-5.9,0.9c-5.5,0-9.9-2.6-12.4-7.4c-3.9-7.6,1.4-17.4,2.7-19.6l1.6-4.4l1.7,5.3
			l-0.3,0.4c-0.1,0.1-6.2,10-2.8,16.8C17.7,167.3,26.4,165,30,163.6z"/>
		<path d="M9,243.6c0,0.1,0,0.1,0,0.2l-0.8-0.1C8.5,243.7,8.7,243.6,9,243.6z"/>
	</g>
	<g>
		<path class="st0" d="M41.9,101.2c-6.6,8.7-15.3,19.4-26.2,31.8c0,0-18.8-9.2-9.4-29.4c9.4-20.2,37.2-52.8,52.8-26.9
			c0,0-0.2,0.3-0.5,0.8C57,80,51.6,88.4,41.9,101.2z"/>
		<path class="st0" d="M58.6,77.6C58.6,77.6,58.6,77.6,58.6,77.6c0.4-0.2,18-6.3,25-2.6c7,3.7-29.6,32.2-41.4,26.5"/>
		<path class="st1" d="M73.9,123.6c1.6-0.4,3.4-0.5,5.5,0c0,0-2.2-6.3-8.8-5.5c-6.6,0.9-2.8,9.4-2.8,9.4s0.4-0.5,1.1-1.2"/>
		<path class="st0" d="M9,243.6c1.1-0.1,2.7-0.1,4.7,0c9,0.7,20.4,7,20.4,7l-2.2,12.7c0,0-12.5-6.8-28.5-2.2c0,0,2.4-10.1,2.2-15.6
			c0,0-0.4-1.3,2.6-1.9C8.5,243.7,8.7,243.6,9,243.6z"/>
		<line class="st2" x1="33.2" y1="248.6" x2="36.3" y2="233.3"/>
		<path class="st0" d="M37.4,359.8c0,0,5.7-7,13.6-6.6c7.9,0.4,13.4,6.7,13.4,6.7"/>
		<path class="st0" d="M37.2,360.6c0,0,10.3,7.2,26.9,0"/>
		<path class="st0" d="M58.5,395.8c1.6-0.2,3.2-0.5,5-0.9c0,0,0-0.3,0-1c0-1.9-0.1-6.6-0.1-11.9c0-4,0.2-8.4,0.4-12.4
			c0.2-3.9,0.6-7.4,1.2-9.7c0-0.1,0-0.1,0-0.2"/>
		<path class="st0" d="M37.2,363c0,0,1.3,23.9,1.1,30c0,0,5.4,4.8,20.2,2.8"/>
		<path class="st0" d="M59.6,345.4c4.8,4,5.6,11.2,5.4,14.5c0,0.8-0.2,1.3-0.3,1.6"/>
		<path class="st0" d="M56.9,343.7c0.6,0.3,1.2,0.6,1.8,1"/>
		<path class="st0" d="M54.1,342.9c0.5,0.1,1.1,0.2,1.5,0.4"/>
		<path class="st0" d="M49.4,342.7c0.6,0,1.2-0.1,1.8-0.1c0.3,0,0.5,0,0.8,0"/>
		<path class="st0" d="M45.6,343.4c0.6-0.2,1.2-0.4,1.9-0.5"/>
		<path class="st0" d="M37.3,363.4c0,0,0-0.2-0.1-0.4c-0.1-0.5-0.2-1.3-0.3-2.4c0-0.2,0-0.5-0.1-0.8c-0.2-4.6,0.4-12.2,6.8-15.5"/>
		<path class="st1" d="M130.5,234.2c0,0-9.5,0.7-14.1,0c0,0,0,0,0,0c-1-0.1-1.7-0.5-2.2-1c-0.9-0.8-1.2-2.1-1.6-3.2
			c-0.3-0.9-0.6-1.7-1.1-2.3c-0.3-0.3-0.6-0.5-1-0.7"/>
		<line class="st1" x1="156" y1="189.9" x2="130.8" y2="210.5"/>
		<line class="st1" x1="185.3" y1="165.9" x2="164" y2="183.3"/>
		<line class="st1" x1="222.3" y1="135.6" x2="195.4" y2="157.6"/>
		<polyline class="st1" points="108.8,210.8 109.5,210.3 112.8,207.7 119.7,202.3 121.2,201 127,196.6 129.6,194.5 136.9,188.8 
			138.8,187.3 148.8,179.4 178.1,156.4 215.9,126.6 260.9,91.2 270.4,96.2 230,129.3 		"/>
		<polyline class="st1" points="222.7,196 249.8,174.2 296.7,136.3 302.6,143.2 112.3,303.9 110.4,305.5 		"/>
		<line class="st1" x1="192.6" y1="220.3" x2="213.7" y2="203.3"/>
		<line class="st1" x1="157.9" y1="248.4" x2="182.3" y2="228.7"/>
		<polyline class="st1" points="112.1,285.4 113.8,284 147.2,257.1 		"/>
		<polygon class="st1" points="216.6,127.4 230,129.3 233,129.7 258.9,165.8 249.4,173.7 222.3,135.6 		"/>
		<polygon class="st1" points="178.8,157.3 195.4,157.6 196.5,157.6 225.8,193.4 222.7,196 213.9,203.6 213.7,203.3 185.3,165.9 		
			"/>
		<polygon class="st1" points="149.2,180 164,183.3 165.3,183.6 192.6,220.3 192.9,220.7 182.4,228.9 182.3,228.7 156,189.9 		"/>
		<polygon class="st1" points="113.4,208.5 130.6,211.7 131.5,211.8 157.9,248.4 158.1,248.6 147.2,257.2 147.2,257.1 131,233.8 		
			"/>
		<line class="st0" x1="144.2" y1="100.3" x2="126.8" y2="196.3"/>
		<line class="st1" x1="120.9" y1="200.7" x2="137.7" y2="96.2"/>
		<path class="st1" d="M173,97l16.4-36.7l6.2-13.8c0,0,1.6-5.6-6.9-7.2c-8.5-1.6-15.8-8.5-12.2-15.8c2.6-5.3,0.7-8.5,1.6-11.8
			c1-3.3,7.2-10.2,16.4-9.2c2.6,1,6.6-1,6.6-1c7.2,1,14.1-2,23.3,9.2s10.8,6.9,14.1,11.5s6.9,17.1-4.6,26c-2.6,2.6-0.3-3.3-12.2,4.3
			s-18.7-2-18.7-2l-64.4,136.7"/>
		<line class="st1" x1="129.5" y1="194.4" x2="171.3" y2="100.8"/>
		<polyline class="st1" points="138.6,95.7 137.8,95.5 105.8,90.6 108,76.6 174.6,87 173,97 172.4,100.9 171.3,100.8 145.8,96.8 		
			"/>
		<polygon class="st1" points="138.6,95.7 136.6,107.8 144.2,100.3 145.4,99.2 145.8,96.8 146.5,93.1 139.2,92 		"/>
		<polygon class="st1" points="189.8,60.5 196.4,56.6 136.6,188.4 201,53.7 		"/>
		<path class="st3" d="M133.8,259.6C133.8,259.6,133.8,259.6,133.8,259.6"/>
		<path class="st3" d="M133.7,259.6c-0.5-0.1-13.2-4-15.1-19.7c0,0,2.4,3.5,4.4,4.2C123,244,128.7,256.5,133.7,259.6z"/>
		<path class="st3" d="M56.9,343.7c0,0.1,0,0.2,0,0.2s-1.1,0.9-1.2-0.7c0-0.1,0-0.2,0-0.3c0-2,0.4-6,0.8-8L52.1,320"/>
		<path class="st3" d="M52.1,320c0.3,0.9,6.6,12.9,6.6,14c0,1-1.4,8.3-1.7,9.6"/>
		<path class="st3" d="M52.1,320C52.4,321.3,51.7,319.2,52.1,320L52.1,320z"/>
		<path class="st3" d="M52,319.9C52,319.8,52,319.8,52,319.9L52,319.9z"/>
		<path class="st3" d="M52,319.9c0,0,0,0.2,0,0.2"/>
		<path class="st0" d="M58.5,395.8C58.4,395.8,58.4,395.8,58.5,395.8c-4.7,1.2-12.1,2.1-20.9-1.2c0,0,2.3,4.6,5.3,6.9"/>
		<path class="st3" d="M53.2,316.8c0,0,10.7,18.3,12,31.1c0,0,1.2,9-1.4,21.8c-0.2,0.8-0.3,1.6-0.5,2.5l0.2,9.9l0.2,11.8
			c0,0,0,0-0.1,0.1c-0.5,0.2-2.2,1.1-5,1.8"/>
	</g>
</g>
</svg>
