<?xml version="1.0" encoding="utf-8"?>
<!-- Generator: Adobe Illustrator 19.0.0, SVG Export Plug-In . SVG Version: 6.00 Build 0)  -->
<svg version="1.1" id="Layer_1" xmlns="http://www.w3.org/2000/svg" xmlns:xlink="http://www.w3.org/1999/xlink" x="0px" y="0px"
	 width="222px" height="222px" viewBox="-144 146 222 222" style="enable-background:new -144 146 222 222;" xml:space="preserve">
<style type="text/css">
	.st0{fill:#A3A2A2;}
	.st1{fill:#DCDCDA;}
	.st2{fill:#545554;}
	.st3{fill:none;stroke:#545554;stroke-width:7;stroke-miterlimit:10;}
	.st4{fill:none;stroke:#545554;stroke-width:8;stroke-miterlimit:10;}
</style>
<g id="XMLID_24_">
	<rect id="XMLID_47_" x="-61.251" y="232.366" class="st0" width="57.46" height="7.808"/>
	<path id="XMLID_46_" class="st0" d="M-57.912,235.863l0.272,2.409c0.134,0.911-0.497,1.76-1.409,1.893L-99.1,246.06
		c-0.912,0.133-1.76-0.497-1.894-1.409l-0.188-1.28"/>
	<path id="XMLID_45_" class="st0" d="M-8.01,235.516l-0.353,2.289c-0.135,0.912,0.497,1.761,1.408,1.895l40.052,5.894
		c0.912,0.133,1.76-0.497,1.893-1.409l0.189-1.28"/>
	<polygon id="XMLID_44_" class="st1" points="-8.458,350.256 -57.621,349.612 -86.117,251.066 -32.615,245.88 21.027,250.206 	"/>
	<g id="XMLID_8_">
		<g id="XMLID_39_">
			<path id="XMLID_28_" class="st2" d="M35.182,243.392l-0.069-0.015C35.159,243.384,35.182,243.392,35.182,243.392z"/>
			<path id="XMLID_25_" class="st2" d="M35.02,243.361l-41.125-6.768l-28.578,0.008l-24.499-0.008l-41.929,6.783
				c1.46-0.262,24.862-4.836,31.221-23.549c6.567-19.314,22.019-19.701,22.019-19.701s4.249-2.318,6.18-6.953l-2.318-1.159
				l-0.773-4.249l4.635-1.545c0,0,6.567-4.249,0.386-11.203c0,0-3.477-4.635,1.159-4.635c0,0-0.386-6.18,5.408-7.726h0.386
				c5.794,1.545,5.408,7.726,5.408,7.726c4.635,0,1.159,4.635,1.159,4.635c-6.18,6.953,0.386,11.203,0.386,11.203l4.635,1.545
				l-0.772,4.249l-2.318,1.159c1.932,4.635,6.18,6.953,6.18,6.953s15.452,0.386,22.019,19.701
				C10.151,238.239,32.903,242.959,35.02,243.361z"/>
			<path id="XMLID_20_" d="M19.553,249.665c0.069,0.1,0.092,0.232,0.061,0.348l-24.962,97.416c-0.038,0.162-0.162,0.285-0.325,0.325
				l-15.876,4.08c-0.038,0.008-0.069,0.015-0.109,0.015h-10.739c-0.247,0-0.448-0.201-0.448-0.448h0.224
				c0,0.124,0.1,0.224,0.224,0.224h10.739c0.015,0,0.038-0.008,0.054-0.008l15.876-4.08c0.077-0.023,0.139-0.085,0.162-0.162
				l24.962-97.416c0.015-0.061,0.008-0.124-0.031-0.178c-0.031-0.054-0.085-0.085-0.147-0.092l-24.746-4.033h-1.205l0.031-0.224
				h1.174l24.777,4.033C19.375,249.488,19.483,249.557,19.553,249.665z"/>
			<path id="XMLID_16_" d="M19.367,249.781c0.038,0.054,0.046,0.116,0.031,0.178l-24.962,97.416
				c-0.023,0.077-0.085,0.139-0.162,0.162l-15.876,4.08c-0.015,0-0.038,0.008-0.054,0.008h-10.739c-0.124,0-0.224-0.101-0.224-0.224
				h0.224h10.708h0.031l0.015-0.008l15.861-4.072l24.962-97.416l-24.708-4.025H-6.77l0.038-0.224h1.205l24.746,4.033
				C19.282,249.696,19.336,249.727,19.367,249.781z"/>
			<path id="XMLID_15_" d="M19.182,249.905L-5.78,347.321l-15.861,4.072c-0.008,0-0.008,0.008-0.015,0l0.031-0.232l15.66-4.025
				l24.87-97.052l-24.468-3.986h-1.228l0.023-0.216h1.244L19.182,249.905z"/>
			<polygon id="XMLID_14_" points="18.904,250.083 -5.966,347.135 -21.626,351.16 -21.588,350.92 -6.144,346.957 18.633,250.268 
				-5.595,246.32 -6.831,246.32 -6.793,246.096 -5.564,246.096 			"/>
			<path id="XMLID_13_" d="M-6.699,245.431l-0.031,0.224h-25.727c-0.124,0-0.224,0.101-0.224,0.224h-0.224
				c0-0.247,0.201-0.448,0.448-0.448H-6.699z"/>
			<path id="XMLID_12_" d="M-6.731,245.655l-0.038,0.224h-25.626h-0.061h-0.224c0-0.124,0.1-0.224,0.224-0.224H-6.731z"/>
			<path id="XMLID_11_" d="M-6.77,245.88l-0.023,0.216l-25.666,0.008c-0.124,0-0.224-0.1-0.224-0.224h0.224h0.061H-6.77z"/>
			<path id="XMLID_7_" d="M-6.793,246.096l-0.038,0.224l-25.626,0.008c-0.247,0-0.448-0.201-0.448-0.448h0.224
				c0,0.124,0.1,0.224,0.224,0.224L-6.793,246.096z"/>
			<path id="XMLID_6_" d="M-21.588,350.92l-0.038,0.239l-0.061,0.015h-10.708c-0.124,0-0.224,0.1-0.224,0.224h-0.224
				c0-0.247,0.201-0.448,0.448-0.448h10.685L-21.588,350.92z"/>
			<path id="XMLID_5_" d="M-21.626,351.16l-0.031,0.232l-10.739,0.008h-0.224c0-0.124,0.1-0.224,0.224-0.224h10.708L-21.626,351.16z
				"/>
			<path id="XMLID_4_" d="M-21.642,351.391l-0.015,0.008v-0.008C-21.649,351.399-21.649,351.391-21.642,351.391z"/>
			<path id="XMLID_3_" d="M-21.657,351.391v0.008h-0.031C-21.68,351.399-21.665,351.399-21.657,351.391z"/>
			<path id="XMLID_2_" d="M-21.657,351.391c-0.008,0.008-0.023,0.008-0.031,0.008h-10.708L-21.657,351.391z"/>
			<path id="XMLID_1_" class="st2" d="M-101.11,243.376l-0.069,0.015C-101.179,243.392-101.156,243.384-101.11,243.376z"/>
		</g>
		<g id="XMLID_34_">
			<polyline id="XMLID_36_" class="st3" points="-21.657,351.399 -21.657,351.391 -21.626,351.16 -21.588,350.92 -6.831,246.32 
				-6.793,246.096 -6.77,245.88 -6.731,245.655 -6.699,245.431 -6.638,244.976 			"/>
			<polyline id="XMLID_35_" class="st3" points="-43.49,351.399 -58.378,245.88 -58.509,244.976 			"/>
			<polyline id="XMLID_32_" class="st4" points="-21.688,351.399 -21.657,351.399 -21.642,351.391 -5.781,347.32 19.182,249.905 
				-5.525,245.88 -6.77,245.88 -32.396,245.88 			"/>
			<line id="XMLID_31_" class="st4" x1="-21.688" y1="351.399" x2="-32.396" y2="351.399"/>
			<line id="XMLID_30_" class="st4" x1="-32.457" y1="245.88" x2="-32.396" y2="245.88"/>
			<polyline id="XMLID_29_" class="st4" points="-32.396,351.399 -32.62,351.399 -32.844,351.399 -43.49,351.399 -59.074,347.32 
				-84.036,249.905 -59.328,245.88 -58.378,245.88 -32.906,245.88 -32.682,245.88 -32.457,245.88 			"/>
		</g>
	</g>
</g>
</svg>
