<?xml version="1.0" encoding="utf-8"?>
<!-- Generator: Adobe Illustrator 19.0.0, SVG Export Plug-In . SVG Version: 6.00 Build 0)  -->
<svg version="1.1" id="Layer_1" xmlns="http://www.w3.org/2000/svg" xmlns:xlink="http://www.w3.org/1999/xlink" x="0px" y="0px"
	 width="512px" height="512px" viewBox="0 0 512 512" style="enable-background:new 0 0 512 512;" xml:space="preserve">
<style type="text/css">
	.st0{fill:#545554;}
	.st1{fill:#A3A2A2;}
	.st2{fill:#ABABAB;}
	.st3{fill:#454545;}
</style>
<g id="XMLID_9_">
	<g id="XMLID_52_">
		<path id="XMLID_59_" class="st0" d="M356.666,160.431l34.168,1.218l18.911,59.179l-4.503,11.708L36.363,348.34
			c0,0-10.374-6.101-11.594-20.133c-1.218-14.032-18.302-15.253-18.302-15.253L356.666,160.431z"/>
		<polygon id="XMLID_58_" class="st1" points="6.467,299.535 356.816,132.364 357.252,160.183 6.467,312.954 		"/>
		<path id="XMLID_57_" class="st2" d="M356.666,160.431c0,0,17.084,3.661,20.745,24.403c3.661,20.741,12.205,41.486,24.406,48.809
			l1.218,12.201l102.498,6.101l-1.22-125.681l-73.211,17.084l-74.286-10.983L356.666,160.431z"/>
		<polygon id="XMLID_56_" class="st1" points="401.817,233.643 36.363,348.34 41.853,352.306 403.035,245.844 		"/>
		<polygon id="XMLID_55_" class="st3" points="41.853,352.306 92.186,355.05 505.533,251.944 407.916,238.826 		"/>
		<polyline id="XMLID_54_" class="st1" points="424.359,404.408 342.023,465.736 342.023,418.877 342.023,285.5 420.728,274.516 		
			"/>
		<path id="XMLID_53_" class="st3" d="M341.047,292.972l28.629-7.14l52.883,58.238l1.831-71.99c0,0-56.736-24.41-84.804,11.589"/>
	</g>
</g>
</svg>
