<?xml version="1.0" encoding="utf-8"?>
<!-- Generator: Adobe Illustrator 27.2.0, SVG Export Plug-In . SVG Version: 6.00 Build 0)  -->
<svg version="1.1" id="Layer_1" xmlns="http://www.w3.org/2000/svg" xmlns:xlink="http://www.w3.org/1999/xlink" x="0px" y="0px"
	 viewBox="0 0 175.3 242.6" style="enable-background:new 0 0 175.3 242.6;" xml:space="preserve">
<style type="text/css">
	.st0{fill:#FFFFFF;}
</style>
<path class="st0" d="M121.5,152h-93l-3.4,11.1h24.8l4.7,15.3h40.7l4.7-15.3h24.8L121.5,152z M43.7,89.6c-2.7,3.8-4.2,8.3-4.2,12.9
	c0,7,3.4,13.7,9.1,17.8l22.2,16.2c1.4,1,2.3,2.7,2.3,4.5c0,1.2-0.4,2.3-1,3.2l3.4,2.4l11.8-16.2c2.7-3.7,4.2-8.2,4.2-12.9
	c0-1.2-0.1-2.3-0.3-3.5c-0.9-5.8-4.1-10.9-8.8-14.3L60,83.5c-1.2-0.9-2-2.1-2.2-3.6c0-0.3-0.1-0.6-0.1-0.9c0-1.2,0.4-2.3,1-3.2
	l-3.3-2.4L43.7,89.6z M57.1,24.6C53.2,30,51,36.6,51,43.3c0,1.7,0.1,3.4,0.4,5.1c1.3,8.3,5.9,15.8,12.8,20.8l28,20.3
	c3.7,2.7,6.1,6.7,6.8,11.1c0.1,0.9,0.2,1.8,0.2,2.7c0,3.6-1.2,7.1-3.3,10l2.7,2l22-30.5c3.9-5.4,6.1-12,6.1-18.7
	c0-10.2-4.9-19.8-13.2-25.8L79.8,15.7c-4.4-3.2-5.3-9.4-2.2-13.7L75,0L57.1,24.6z M0,187.7h25.5c6.3,0,11.2,1.7,14.3,4.9
	c2.5,2.4,3.9,5.8,3.8,9.3v0.1c0,6.2-3.3,9.6-7.2,11.8c6.3,2.4,10.3,6.1,10.3,13.5v0.2c0,10-8.1,15-20.5,15H0L0,187.7z M22.9,209.9
	c5.3,0,8.7-1.7,8.7-5.8V204c0-3.6-2.8-5.6-7.9-5.6H11.8v11.6H22.9z M26.1,232c5.3,0,8.6-1.9,8.6-5.9v-0.2c0-3.7-2.7-5.9-8.9-5.9h-14
	v12.1L26.1,232z M51.9,187.7h25.5c6.3,0,11.2,1.7,14.3,4.9c2.5,2.5,3.8,5.8,3.7,9.3v0.1c0,6.2-3.3,9.6-7.2,11.8
	c6.4,2.4,10.3,6.1,10.3,13.5v0.2c0,10-8.1,15-20.5,15h-26L51.9,187.7z M74.8,209.9c5.3,0,8.7-1.7,8.7-5.8V204c0-3.6-2.8-5.6-7.9-5.6
	H63.6v11.6H74.8z M78,232c5.3,0,8.6-1.9,8.6-5.9v-0.2c0-3.7-2.7-5.9-8.9-5.9h-14v12.1L78,232z M103.8,187.7h25.5
	c6.3,0,11.2,1.7,14.3,4.9c2.5,2.5,3.9,5.8,3.8,9.3v0.1c0,6.2-3.3,9.6-7.2,11.8c6.4,2.4,10.3,6.1,10.3,13.5v0.2c0,10-8.2,15-20.5,15
	h-26.1V187.7z M126.6,209.9c5.3,0,8.7-1.7,8.7-5.8V204c0-3.6-2.8-5.6-7.9-5.6h-11.9v11.6H126.6z M129.9,232c5.3,0,8.6-1.9,8.6-5.9
	v-0.2c0-3.7-2.7-5.9-8.9-5.9h-14v12.1L129.9,232z M152.9,231.1L152.9,231.1C152.9,231.1,152.9,231.1,152.9,231.1
	c0-6.2,5.1-11.3,11.2-11.3c6.1,0,11.2,5,11.2,11.2v0.1v0c0,6.1-5.1,11.2-11.2,11.2C158,242.3,153,237.3,152.9,231.1z M174,231.1
	L174,231.1c0-5.5-4.5-9.9-9.9-9.9c-5.4,0-9.9,4.5-9.9,9.9v0v0.1c0,5.4,4.5,9.8,9.9,9.8C169.5,241,174,236.5,174,231.1
	C174,231.1,174,231.1,174,231.1z M159.5,224.8h5.3c1.4-0.1,2.7,0.4,3.7,1.3c0.7,0.7,1,1.6,1,2.6v0.1c0.1,1.7-1,3.2-2.6,3.7l2.9,4.3
	h-3.1l-2.5-3.8h-2.1v3.8h-2.6L159.5,224.8z M164.8,230.6c1.3,0,2-0.7,2-1.7v-0.1c0-1.1-0.8-1.7-2.1-1.7h-2.6v3.5H164.8z"/>
</svg>
