<?xml version="1.0" encoding="utf-8"?>
<!-- Generator: Adobe Illustrator 27.2.0, SVG Export Plug-In . SVG Version: 6.00 Build 0)  -->
<svg version="1.1" id="Layer_1" xmlns="http://www.w3.org/2000/svg" xmlns:xlink="http://www.w3.org/1999/xlink" x="0px" y="0px"
	 viewBox="0 0 532.3 531" style="enable-background:new 0 0 532.3 531;" xml:space="preserve">
<style type="text/css">
	.st0{fill:#FFFFFF;}
</style>
<g>
	<path class="st0" d="M430.2,266.1l84-84c24.1-24.1,24.1-63.3,0-87.4l-76.7-76.7C413.4-6,374.2-6,350.1,18.1l-84,84l-84-84
		C158.1-6,118.9-6,94.8,18.1L18.1,94.2C6.3,106,0.1,121.7,0.1,137.9c0,16.8,6.2,31.9,17.9,43.7l84,84l-84,84
		c-24.1,24.1-24.1,63.3,0,87.4l76.2,76.2c11.8,11.8,27.4,17.9,43.7,17.9c16.8,0,31.9-6.7,43.7-17.9l84-84l84,84
		c11.8,11.8,27.4,17.9,43.7,17.9c16.8,0,31.9-6.7,43.7-17.9l76.2-76.2c24.1-24.1,24.1-63.3,0-87.4L430.2,266.1z M299.2,114.9
		L373.1,41c5.6-5.6,13.4-8.4,20.7-8.4c7.3,0,15.1,2.8,20.7,8.4l76.2,76.2c11.8,11.8,11.8,30.2,0,42l-73.4,73.9
		c-5.6,5.6-14.6,5.6-20.2,0l-98-98C293.6,129.5,293.6,120.5,299.2,114.9L299.2,114.9z M41,159.2c-5.6-5.6-8.4-12.9-8.4-20.7
		c0-7.8,2.8-15.1,8.4-20.7L117.2,41c5.6-5.6,13.4-8.4,20.7-8.4c7.3,0,15.1,2.8,20.7,8.4l74.5,73.9c5.6,5.6,5.6,14.6,0,20.2l-98,98
		c-5.6,5.6-14.6,5.6-20.2,0L41,159.2z M233.1,417.3l-73.9,73.9c-11.8,11.8-30.2,11.8-42,0L41,415.1c-11.8-11.8-11.8-30.2,0-42
		l73.9-73.9c5.6-5.6,14.6-5.6,20.2,0l98,98C238.7,402.8,238.7,411.7,233.1,417.3z M288,325.5c0,3.4-2.8,6.2-6.2,6.2h-31.4
		c-3.4,0-6.2-2.8-6.2-6.2V288h-37.5c-3.4,0-6.2-2.8-6.2-6.2v-31.4c0-3.4,2.8-6.2,6.2-6.2h37.5v-37.5c0-3.4,2.8-6.2,6.2-6.2h31.4
		c3.4,0,6.2,2.8,6.2,6.2v37.5h37.5c3.4,0,6.2,2.8,6.2,6.2v31.4c0,3.4-2.8,6.2-6.2,6.2H288V325.5z M491.3,415.1l-76.2,76.2
		c-11.8,11.8-30.2,11.8-42,0l-73.9-73.9c-5.6-5.6-5.6-14.6,0-20.2l98-98c5.6-5.6,14.6-5.6,20.2,0l73.9,73.9
		C503,384.3,503,403.3,491.3,415.1z"/>
</g>
</svg>
