<?xml version="1.0" encoding="utf-8"?>
<!-- Generator: Adobe Illustrator 19.0.0, SVG Export Plug-In . SVG Version: 6.00 Build 0)  -->
<svg version="1.1" id="Layer_2" xmlns="http://www.w3.org/2000/svg" xmlns:xlink="http://www.w3.org/1999/xlink" x="0px" y="0px"
	 width="718.145px" height="294.595px" viewBox="103 109.405 718.145 294.595"
	 style="enable-background:new 103 109.405 718.145 294.595;" xml:space="preserve">
<style type="text/css">
	.st0{fill:#4C7FC1;}
	.st1{fill:#7AA5D3;}
	.st2{enable-background:new    ;}
</style>
<polygon class="st0" points="285.836,374.408 309.821,374.408 309.821,258.585 328.164,223.311 429.751,223.311 429.751,204.97 
	424.108,204.97 424.108,197.915 286.309,197.915 "/>
<polygon class="st0" points="304.83,374.408 280.843,374.408 280.843,258.585 262.502,223.311 160.914,223.311 160.914,204.97 
	166.558,204.97 166.558,197.915 304.356,197.915 "/>
<g>
	<path class="st1" d="M324.14,176.287l11.271-11.893c0,0-7.209,3.13,1.56-0.627c8.769-3.759,9.078-3.447,10.334-8.768
		c1.251-5.321-6.261-9.394-13.773-1.251c-7.517,8.14-13.149,25.358-13.149,25.358L324.14,176.287z"/>
	<path class="st1" d="M403.718,183.808l18.288-5.864c0,0-9.166-0.846,1.962,0.24c11.122,1.085,11.265,1.579,15.559-3.18
		c4.288-4.762-1.129-13.184-13.442-9.058c-12.317,4.128-27.816,18.637-27.816,18.637L403.718,183.808z"/>
	<path class="st1" d="M282.65,150.2l-10.273-9.563c0,0,6.333,2.288-1.367-0.454c-7.7-2.74-7.947-2.459-9.303-6.94
		s4.85-8.367,11.706-1.81c6.862,6.556,12.599,20.971,12.599,20.971L282.65,150.2z"/>
	<path class="st1" d="M262.66,167.916l-17.218-9.957c0,0,9.464,1.157-2.039-0.192c-11.497-1.348-11.751-0.877-15.046-6.639
		c-3.29-5.759,4.051-13.092,15.598-6.208c11.552,6.884,24.046,24.978,24.046,24.978L262.66,167.916z"/>
	<path class="st1" d="M151.633,198.639l-10.279-5.941c0,0,5.65,0.689-1.213-0.113c-6.862-0.805-7.013-0.526-8.978-3.963
		c-1.964-3.439,2.414-7.815,9.309-3.704c6.889,4.106,14.346,14.904,14.346,14.904L151.633,198.639z"/>
	<path class="st1" d="M147.985,206.425l-10.69,5.164c0,0,3.745-4.285-0.777,0.939c-4.516,5.228-4.373,5.503-8.319,5.201
		c-3.952-0.306-5.109-6.388,2.163-9.78c7.267-3.392,20.391-3.494,20.391-3.494L147.985,206.425z"/>
	<path class="st1" d="M434.953,202.865l14.346,3.466c0,0-5.677-4.221,1.191,0.943c6.868,5.162,6.763,5.539,11.485,4.137
		c4.719-1.411,4.531-9.105-5.196-11.324c-9.739-2.215-25.717,1.105-25.717,1.105L434.953,202.865z"/>
</g>
<g class="st2">
	<path class="st0" d="M244.977,336.587c0,11.523-4.146,20.602-12.439,27.236c-8.293,6.634-19.831,9.951-34.612,9.951
		c-13.618,0-25.664-2.561-36.139-7.682v-25.141c8.612,3.841,15.901,6.547,21.867,8.118c5.965,1.571,11.42,2.356,16.368,2.356
		c5.936,0,10.489-1.135,13.661-3.404c3.171-2.27,4.758-5.644,4.758-10.126c0-2.501-0.698-4.728-2.095-6.678
		c-1.396-1.949-3.448-3.826-6.154-5.63s-8.22-4.685-16.542-8.643c-7.799-3.666-13.647-7.187-17.546-10.562
		c-3.899-3.374-7.013-7.303-9.34-11.784c-2.328-4.48-3.492-9.719-3.492-15.713c0-11.29,3.826-20.165,11.479-26.625
		c7.652-6.459,18.229-9.689,31.731-9.689c6.634,0,12.963,0.786,18.986,2.357c6.023,1.571,12.322,3.783,18.899,6.634l-8.729,21.039
		c-6.809-2.794-12.439-4.742-16.891-5.849c-4.452-1.104-8.832-1.658-13.138-1.658c-5.122,0-9.05,1.193-11.785,3.578
		c-2.736,2.388-4.103,5.5-4.103,9.341c0,2.387,0.553,4.467,1.659,6.241c1.105,1.776,2.866,3.492,5.281,5.15
		c2.414,1.658,8.132,4.642,17.153,8.947c11.929,5.704,20.106,11.422,24.529,17.153C242.764,321.238,244.977,328.265,244.977,336.587
		z"/>
</g>
<g class="st2">
	<path class="st0" d="M458.518,308.042c0,21.125-5.238,37.362-15.713,48.71c-10.475,11.349-25.489,17.022-45.043,17.022
		s-34.568-5.674-45.043-17.022c-10.475-11.348-15.713-27.642-15.713-48.884c0-21.241,5.251-37.463,15.757-48.666
		c10.503-11.203,25.562-16.804,45.174-16.804c19.611,0,34.612,5.645,45,16.935C453.324,270.624,458.518,286.86,458.518,308.042z
		 M365.376,308.042c0,14.259,2.706,24.996,8.118,32.212c5.412,7.217,13.5,10.824,24.268,10.824c21.59,0,32.386-14.345,32.386-43.036
		c0-28.748-10.737-43.122-32.211-43.122c-10.767,0-18.885,3.622-24.354,10.868C368.11,283.033,365.376,293.785,365.376,308.042z"/>
	<path class="st0" d="M477.995,244.405h39.719c18.098,0,31.235,2.574,39.413,7.725c8.175,5.15,12.265,13.343,12.265,24.574
		c0,7.625-1.79,13.88-5.369,18.769c-3.579,4.888-8.336,7.827-14.272,8.816v0.873c8.089,1.804,13.924,5.18,17.503,10.126
		c3.578,4.946,5.368,11.522,5.368,19.728c0,11.641-4.205,20.719-12.614,27.236c-8.41,6.518-19.83,9.776-34.263,9.776h-47.749
		V244.405z M505.056,294.948h15.713c7.333,0,12.643-1.135,15.932-3.404c3.287-2.27,4.932-6.023,4.932-11.261
		c0-4.889-1.789-8.394-5.368-10.519c-3.579-2.124-9.239-3.187-16.979-3.187h-14.229V294.948z M505.056,316.423v33.259h17.634
		c7.448,0,12.948-1.426,16.498-4.277c3.549-2.851,5.325-7.216,5.325-13.095c0-10.591-7.565-15.887-22.696-15.887H505.056z"/>
	<path class="st0" d="M664.64,372.028h-73.502V244.405h73.502v22.172H618.2v28.021h43.209v22.172H618.2v32.91h46.439V372.028z"/>
	<path class="st0" d="M711.353,323.056v48.972h-27.062V244.405h37.188c17.341,0,30.173,3.157,38.496,9.471
		c8.321,6.316,12.482,15.903,12.482,28.764c0,7.507-2.066,14.185-6.197,20.033c-4.133,5.849-9.981,10.432-17.546,13.749
		c19.204,28.69,31.716,47.226,37.536,55.605h-30.029l-30.465-48.972H711.353z M711.353,301.058h8.729
		c8.555,0,14.868-1.425,18.942-4.277c4.072-2.851,6.11-7.332,6.11-13.442c0-6.052-2.081-10.358-6.241-12.92
		c-4.162-2.56-10.606-3.841-19.336-3.841h-8.205V301.058z"/>
</g>
</svg>
