<?xml version="1.0" standalone="no"?>
<!DOCTYPE svg PUBLIC "-//W3C//DTD SVG 20010904//EN"
 "http://www.w3.org/TR/2001/REC-SVG-20010904/DTD/svg10.dtd">
<svg version="1.0" xmlns="http://www.w3.org/2000/svg"
 width="70.000000pt" height="70.000000pt" viewBox="0 0 70.000000 70.000000"
 preserveAspectRatio="xMidYMid meet">
<metadata>
Created by potrace 1.14, written by Peter Selinger 2001-2017
</metadata>
<g transform="translate(0.000000,70.000000) scale(0.100000,-0.100000)"
fill="#000000" stroke="none">
<path d="M424 692 c-6 -4 -15 -22 -19 -40 -6 -29 -4 -34 14 -39 16 -4 20 -12
18 -38 -1 -18 -5 -31 -8 -29 -4 2 -10 -7 -13 -20 -6 -23 -6 -23 -73 -10 -89
17 -93 17 -93 -5 0 -19 18 -31 49 -31 13 0 16 -9 16 -45 0 -25 -3 -45 -6 -45
-4 0 -10 -28 -13 -62 -4 -34 -14 -71 -22 -82 -12 -18 -19 -16 -15 7 0 4 -4 7
-10 7 -6 0 -8 -7 -5 -16 3 -9 6 -22 6 -30 0 -8 5 -14 11 -14 5 0 7 6 4 13 -4
6 2 1 14 -13 12 -15 16 -27 9 -29 -6 -2 -14 3 -19 10 -6 10 -9 11 -9 2 0 -8
-14 -13 -35 -13 -39 0 -91 40 -82 64 3 7 -1 13 -8 13 -11 0 -11 -7 0 -37 20
-57 23 -156 5 -145 -16 10 -40 74 -34 90 4 8 1 15 -5 15 -6 0 -11 -7 -11 -15
0 -18 -1 -18 -33 -6 -21 8 -26 6 -31 -12 -9 -35 -8 -37 27 -37 43 0 54 -10 53
-42 -1 -14 3 -24 8 -21 5 4 7 -1 3 -11 -4 -10 -3 -15 3 -11 6 3 10 1 10 -4 0
-18 132 -13 155 6 14 11 15 14 4 10 -14 -5 -16 3 -15 53 1 57 1 58 21 42 19
-17 19 -17 2 11 -21 32 -3 37 22 5 17 -21 17 -22 -13 -50 -29 -28 -20 -29 14
-2 126 102 307 262 283 250 -6 -4 -24 10 -39 29 l-27 36 38 39 c25 26 36 43
29 50 -6 6 -49 -24 -119 -81 -124 -102 -142 -120 -102 -94 18 11 31 15 35 9 4
-6 20 -27 36 -47 23 -30 26 -40 16 -52 -18 -22 -26 -19 -56 20 -26 35 -26 36
-8 50 23 18 11 20 -16 3 -15 -10 -22 -10 -32 0 -9 9 -1 36 41 124 29 62 55
120 58 129 3 10 20 19 44 23 31 5 42 12 50 33 19 52 -78 117 -127 85z m142
-247 c-21 -19 -45 -35 -54 -35 -8 0 5 16 29 35 57 45 76 45 25 0z m-176 22 c0
-8 -67 -157 -73 -163 -4 -4 -2 7 2 24 6 20 5 34 -2 42 -9 10 -9 11 0 6 7 -4
13 10 18 44 6 44 10 50 31 50 13 0 24 -1 24 -3z m85 -97 c-15 -16 -32 -27 -36
-24 -10 6 40 53 55 54 6 0 -3 -13 -19 -30z m59 -27 c24 -34 24 -38 9 -55 -22
-25 -28 -23 -59 17 l-27 35 23 20 c13 11 24 20 26 20 2 0 15 -17 28 -37z
m-153 -114 l33 -52 -23 -19 -24 -18 -23 34 c-28 41 -30 54 -9 62 8 4 15 11 15
17 0 6 -11 0 -24 -12 -14 -13 -30 -20 -36 -16 -7 4 1 16 21 31 18 13 34 24 35
24 1 0 17 -23 35 -51z m-305 -104 c18 -15 18 -15 -5 -13 -14 2 -26 9 -29 16
-5 17 10 15 34 -3z"/>
<path d="M61 515 c-37 -42 -47 -76 -31 -104 15 -28 25 -26 52 10 12 16 41 38
63 48 46 20 70 45 60 62 -4 6 -18 9 -31 6 -14 -2 -27 0 -30 4 -12 21 -53 7
-83 -26z m74 15 c7 -12 -70 -120 -84 -120 -16 0 -21 31 -10 53 16 32 61 77 75
77 7 0 16 -5 19 -10z m36 -30 c-19 -16 -36 -28 -39 -26 -8 9 24 45 43 49 11 2
22 5 25 5 3 1 -10 -12 -29 -28z"/>
<path d="M191 464 c0 -11 3 -14 6 -6 3 7 2 16 -1 19 -3 4 -6 -2 -5 -13z"/>
<path d="M160 418 c0 -11 28 -10 35 1 3 6 -4 9 -15 8 -11 -1 -20 -5 -20 -9z"/>
<path d="M210 396 c0 -14 4 -27 8 -30 5 -3 6 8 4 25 -5 35 -12 38 -12 5z"/>
<path d="M110 390 c0 -5 5 -10 11 -10 5 0 7 5 4 10 -3 6 -8 10 -11 10 -2 0 -4
-4 -4 -10z"/>
<path d="M642 370 c-13 -11 -21 -24 -17 -30 3 -5 -11 -24 -32 -42 -21 -18 -58
-53 -83 -77 -25 -23 6 1 68 54 61 53 110 101 106 106 -8 13 -16 11 -42 -11z
m23 -10 c-10 -11 -23 -20 -29 -20 -6 1 0 10 13 20 30 26 39 26 16 0z"/>
<path d="M47 373 c-12 -11 -8 -40 8 -53 10 -9 15 -9 15 -1 0 6 -5 11 -11 11
-7 0 -9 10 -7 25 6 27 5 29 -5 18z"/>
<path d="M217 330 c-3 -11 -1 -20 4 -20 5 0 9 9 9 20 0 11 -2 20 -4 20 -2 0
-6 -9 -9 -20z"/>
<path d="M185 330 c-4 -6 -13 -9 -21 -6 -23 9 -26 -12 -3 -24 16 -9 24 -9 33
0 8 8 6 10 -9 5 -20 -7 -20 -6 -1 9 11 9 17 18 14 22 -3 3 -9 0 -13 -6z"/>
<path d="M80 325 c0 -17 77 -71 87 -61 3 3 1 6 -5 6 -6 0 -27 14 -47 31 -19
17 -35 28 -35 24z"/>
<path d="M198 278 c-10 -10 -14 -18 -9 -18 10 0 36 29 30 34 -2 1 -12 -6 -21
-16z"/>
<path d="M55 230 c-8 -16 -15 -37 -15 -47 1 -13 28 47 30 64 0 1 8 4 18 6 16
4 16 5 0 6 -10 0 -24 -12 -33 -29z"/>
<path d="M168 243 c6 -2 12 -9 12 -14 0 -6 -5 -7 -11 -3 -7 4 -6 -3 2 -17 11
-21 14 -22 17 -6 5 25 -5 47 -20 46 -10 0 -10 -2 0 -6z"/>
<path d="M201 243 c-1 -16 10 -43 18 -43 4 0 8 10 8 22 2 17 0 19 -6 9 -7 -11
-10 -10 -14 5 -2 10 -5 14 -6 7z"/>
<path d="M377 109 c-43 -38 -73 -69 -68 -69 5 0 27 17 49 38 22 21 55 51 72
66 18 15 31 28 29 30 -2 2 -39 -27 -82 -65z"/>
<path d="M45 61 c8 -17 19 -33 25 -36 5 -3 1 10 -11 29 -25 43 -36 48 -14 7z"/>
<path d="M80 71 c0 -6 4 -13 10 -16 6 -3 7 1 4 9 -7 18 -14 21 -14 7z"/>
</g>
</svg>
